<svg width="711" height="293" fill="none"
  xmlns="http://www.w3.org/2000/svg">
  <path d="M244 16h59.654c6.68 0 12.894 1.164 18.642 3.492 5.903 2.173 10.952 5.2 15.147 9.08 4.35 3.725 7.69 8.226 10.02 13.503 2.485 5.121 3.728 10.631 3.728 16.529 0 6.984-1.864 13.425-5.592 19.323-3.573 5.742-8.389 10.399-14.448 13.968 9.321 3.104 16.778 8.381 22.37 15.831 5.748 7.295 8.622 15.676 8.622 25.143 0 6.364-1.243 12.339-3.728 17.927-2.486 5.587-5.981 10.476-10.486 14.667-4.35 4.19-9.554 7.527-15.613 10.01-5.903 2.328-12.35 3.492-19.341 3.492H244V16Zm24.468 20.72v47.725h33.322c3.573 0 6.835-.62 9.787-1.862 3.107-1.242 5.748-2.949 7.923-5.122a24.537 24.537 0 0 0 5.126-7.45c1.243-2.948 1.865-6.053 1.865-9.312 0-6.829-2.331-12.494-6.991-16.995-4.505-4.656-10.409-6.984-17.71-6.984h-33.322Zm41.245 121.526c8.233 0 14.913-2.561 20.04-7.683 5.126-5.277 7.69-11.718 7.69-19.323 0-3.725-.699-7.14-2.098-10.244-1.398-3.259-3.34-6.053-5.825-8.381-2.33-2.483-5.204-4.423-8.622-5.82-3.418-1.397-7.146-2.095-11.185-2.095h-41.245v53.546h41.245ZM370.718 146.14c0-10.399 3.34-18.547 10.02-24.445 6.835-6.053 16.467-9.468 28.895-10.244l37.051-2.794v-7.682c0-6.83-2.097-12.106-6.292-15.831-4.194-3.88-10.253-5.82-18.176-5.82-5.748 0-11.263.93-16.545 2.793-5.281 1.708-10.408 4.579-15.379 8.614l-10.486-16.995c6.214-5.277 13.127-9.157 20.739-11.64 7.767-2.639 16.079-3.958 24.934-3.958 6.68 0 12.738.931 18.175 2.794 5.438 1.862 10.098 4.578 13.982 8.148 3.884 3.415 6.835 7.605 8.855 12.572 2.175 4.811 3.262 10.243 3.262 16.296v53.546c0 4.501 2.33 6.752 6.991 6.752h6.059v20.719h-11.652c-5.748 0-10.641-1.319-14.68-3.957-3.884-2.639-6.603-6.286-8.156-10.942-4.039 5.432-9.243 9.7-15.613 12.804-6.369 3.104-13.515 4.656-21.438 4.656-5.903 0-11.34-.853-16.312-2.561-4.815-1.707-9.088-4.113-12.816-7.217-3.573-3.259-6.369-7.061-8.389-11.407-2.019-4.346-3.029-9.08-3.029-14.201Zm22.603-.233c0 5.122 2.097 9.312 6.292 12.571 4.194 3.104 9.632 4.657 16.312 4.657 4.194 0 8.155-.699 11.884-2.096 3.728-1.397 6.99-3.259 9.787-5.587 2.796-2.483 4.971-5.355 6.524-8.614 1.709-3.259 2.564-6.751 2.564-10.476v-9.778l-33.556 2.793c-13.204.932-19.807 6.441-19.807 16.53ZM539.502 181.526c-7.301 0-13.904-1.009-19.807-3.026-5.903-2.018-11.108-4.734-15.613-8.148-4.349-3.57-7.922-7.761-10.719-12.572-2.796-4.811-4.738-10.011-5.825-15.598h22.603c1.398 6.829 4.738 11.951 10.02 15.365 5.282 3.415 11.651 5.122 19.108 5.122 6.525 0 11.574-1.397 15.147-4.191 3.728-2.793 5.592-6.441 5.592-10.942 0-7.294-5.437-12.416-16.312-15.365l-21.904-5.355c-21.438-5.432-32.157-16.606-32.157-33.524 0-5.432 1.01-10.321 3.029-14.667 2.175-4.346 5.049-8.07 8.622-11.174 3.728-3.105 8.078-5.51 13.049-7.217 5.127-1.708 10.72-2.561 16.778-2.561 6.991 0 13.283 1.008 18.875 3.026 5.748 2.018 10.719 4.811 14.914 8.381 4.194 3.415 7.612 7.528 10.253 12.339 2.641 4.811 4.35 10.01 5.126 15.598h-22.603c-1.398-6.829-4.738-11.95-10.02-15.365-5.127-3.415-10.719-5.122-16.778-5.122-5.748 0-10.253 1.397-13.515 4.19-3.107 2.639-4.661 6.053-4.661 10.244 0 7.45 5.67 12.572 17.011 15.365l20.506 5.355c21.904 5.587 32.857 16.917 32.857 33.99 0 5.122-1.01 9.855-3.03 14.201-2.019 4.346-4.971 8.148-8.855 11.408-3.728 3.259-8.311 5.82-13.748 7.682-5.282 1.708-11.263 2.561-17.943 2.561ZM590.352 119.599c0-8.381 1.554-16.296 4.661-23.746 3.107-7.45 7.379-13.968 12.816-19.556 5.437-5.742 11.884-10.243 19.341-13.503 7.457-3.259 15.535-4.889 24.235-4.889 8.544 0 16.467 1.552 23.768 4.657 7.302 3.104 13.593 7.45 18.875 13.037 5.282 5.432 9.399 11.95 12.35 19.556 2.952 7.449 4.428 15.598 4.428 24.444v7.683h-96.705c.776 4.811 2.33 9.312 4.66 13.503a44.289 44.289 0 0 0 8.622 10.709 43.537 43.537 0 0 0 11.884 6.984c4.506 1.708 9.244 2.561 14.215 2.561 14.137 0 25.555-5.82 34.254-17.46l17.011 12.571c-5.903 7.916-13.205 14.124-21.904 18.625-8.7 4.501-18.487 6.751-29.361 6.751-8.855 0-17.166-1.552-24.934-4.656-7.612-3.104-14.292-7.45-20.04-13.037-5.592-5.587-10.02-12.106-13.282-19.556-3.263-7.605-4.894-15.831-4.894-24.678Zm60.587-41.207c-8.855 0-16.623 2.794-23.303 8.382-6.525 5.432-10.874 12.726-13.049 21.883h72.47c-2.019-9.157-6.369-16.451-13.049-21.883-6.525-5.588-14.215-8.382-23.069-8.382Z" fill="#000"/>
  <path d="m299.2 269.938 12.986-50.138h6.708l-16.34 60.2h-6.278l-16.942-50.31L262.478 280H256.2l-16.34-60.2h6.88l12.986 50.224 16.77-50.224h5.848l16.856 50.138Zm22.575-11.524c0-3.096.545-5.991 1.635-8.686 1.146-2.695 2.694-5.045 4.644-7.052a21.675 21.675 0 0 1 6.966-4.816c2.694-1.204 5.59-1.806 8.686-1.806 2.981 0 5.762.573 8.342 1.72a19.57 19.57 0 0 1 6.708 4.644c1.892 1.949 3.382 4.243 4.472 6.88 1.089 2.637 1.634 5.504 1.634 8.6v2.408h-36.894c.229 2.121.802 4.099 1.72 5.934a18.894 18.894 0 0 0 3.612 4.816c1.433 1.319 3.096 2.379 4.988 3.182 1.892.745 3.898 1.118 6.02 1.118 2.809 0 5.36-.602 7.654-1.806 2.35-1.261 4.357-3.01 6.02-5.246l4.644 3.268c-2.064 2.867-4.673 5.131-7.826 6.794-3.154 1.605-6.622 2.408-10.406 2.408-3.211 0-6.192-.573-8.944-1.72-2.752-1.147-5.132-2.723-7.138-4.73-2.007-2.007-3.612-4.357-4.816-7.052-1.147-2.752-1.721-5.705-1.721-8.858Zm21.931-16.942c-1.95 0-3.784.344-5.504 1.032a16.05 16.05 0 0 0-4.644 2.838 17.235 17.235 0 0 0-3.526 4.3c-.918 1.663-1.548 3.497-1.892 5.504h30.53c-.287-2.007-.889-3.841-1.806-5.504a14.513 14.513 0 0 0-3.354-4.3 15.211 15.211 0 0 0-4.472-2.838c-1.663-.688-3.44-1.032-5.332-1.032Zm30.498-21.672h6.192v24.338a21.555 21.555 0 0 1 7.31-5.934c2.924-1.433 6.106-2.15 9.546-2.15 3.096 0 6.02.573 8.772 1.72 2.752 1.147 5.132 2.752 7.138 4.816 2.007 2.007 3.584 4.386 4.73 7.138 1.204 2.695 1.806 5.59 1.806 8.686 0 3.153-.602 6.106-1.806 8.858a23.122 23.122 0 0 1-4.73 7.138c-2.006 2.007-4.386 3.583-7.138 4.73-2.694 1.147-5.618 1.72-8.772 1.72-3.497 0-6.679-.717-9.546-2.15a22.011 22.011 0 0 1-7.31-5.848V280h-6.192v-60.2Zm6.106 38.614c0 2.351.43 4.558 1.29 6.622.86 2.064 2.036 3.87 3.526 5.418a19.021 19.021 0 0 0 5.332 3.612c2.007.86 4.157 1.29 6.45 1.29 2.294 0 4.444-.43 6.45-1.29 2.007-.917 3.756-2.121 5.246-3.612a16.62 16.62 0 0 0 3.612-5.418c.86-2.064 1.29-4.271 1.29-6.622s-.43-4.529-1.29-6.536c-.86-2.064-2.064-3.841-3.612-5.332a15.887 15.887 0 0 0-5.246-3.612c-2.006-.917-4.156-1.376-6.45-1.376-2.293 0-4.443.459-6.45 1.376a16.883 16.883 0 0 0-5.332 3.612c-1.49 1.491-2.666 3.268-3.526 5.332-.86 2.007-1.29 4.185-1.29 6.536Z" fill="#4E545B"/>
  <path d="M100.374 50.735c0-2.426 0-3.64.479-4.201a1.995 1.995 0 0 1 1.676-.696c.734.058 1.59.916 3.301 2.631l47.586 47.701c1.187 1.19 1.78 1.785 2.002 2.47a3.005 3.005 0 0 1 0 1.857c-.222.686-.815 1.28-2.002 2.47l-47.586 47.701c-1.711 1.715-2.567 2.573-3.301 2.631a1.994 1.994 0 0 1-1.676-.696c-.479-.561-.479-1.775-.479-4.201V50.735Z" fill="#000"/>
  <path fill-rule="evenodd" clip-rule="evenodd" d="M118.47 8.47c-10.201-10.2-26.74-10.2-36.94 0L7.65 82.35c-10.2 10.2-10.2 26.739 0 36.939l73.88 73.88c10.2 10.201 26.739 10.201 36.94 0l73.88-73.88c10.2-10.2 10.2-26.739 0-36.94L118.47 8.47Zm-9.039 26.765c-5.1-5.1-13.37-5.1-18.47 0l-55.41 55.41c-5.1 5.1-5.1 13.369 0 18.469l55.41 55.41c5.1 5.1 13.37 5.1 18.47 0l55.41-55.41c5.1-5.1 5.1-13.37 0-18.47l-55.41-55.41Z" fill="#000"/>
</svg>